# xmcd
#
# Track frame offsets:
#	150
#	15392
#	33314
#	52767
#	70238
#	83359
#	101709
#	125569
#	144078
#	159835
#
# Disc length: 2267 seconds
#
# Revision: 0
# Processed by: cddbd v1.5.2PL0 Copyright (c) Steve Scherf et al.
# Submitted via: dBpowerAMP V4.0
#
DISCID=6a08d90a
DTITLE=Will Glover - Standing In The Line Of Fire 
DYEAR=1996
DGENRE=Country
TTITLE0=Standing In The Line Of Fire 
TTITLE1=Dancin' Around In Circles
TTITLE2=This Boy's In Love 
TTITLE3=Working For You 
TTITLE4=Know Where I'm Sleepin' Tonight 
TTITLE5=Still Stuck On You
TTITLE6=Please Let Me Love You
TTITLE7=What About Me
TTITLE8=In Times Like These
TTITLE9=Cold Hearted Lover
EXTD=
EXTT0=
EXTT1=
EXTT2=
EXTT3=
EXTT4=
EXTT5=
EXTT6=
EXTT7=
EXTT8=
EXTT9=
PLAYORDER=
